<?xml version="1.0" encoding="UTF-8" standalone="no"?>
<svg
   xmlns:dc="http://purl.org/dc/elements/1.1/"
   xmlns:cc="http://creativecommons.org/ns#"
   xmlns:rdf="http://www.w3.org/1999/02/22-rdf-syntax-ns#"
   xmlns:svg="http://www.w3.org/2000/svg"
   xmlns="http://www.w3.org/2000/svg"
   viewBox="0 0 816 1056"
   height="1056"
   width="816"
   xml:space="preserve"
   id="svg2"
   version="1.1"><metadata
     id="metadata8"><rdf:RDF><cc:Work
         rdf:about=""><dc:format>image/svg+xml</dc:format><dc:type
           rdf:resource="http://purl.org/dc/dcmitype/StillImage" /></cc:Work></rdf:RDF></metadata><defs
     id="defs6"><clipPath
       id="clipPath18"
       clipPathUnits="userSpaceOnUse"><path
         style="clip-rule:evenodd"
         id="path16"
         d="M 9.12e-6,0 H 612.00001 V 792 H 9.12e-6 Z" /></clipPath><clipPath
       id="clipPath30"
       clipPathUnits="userSpaceOnUse"><path
         style="clip-rule:evenodd"
         id="path28"
         d="M 9.12e-6,0 H 612.00001 V 792 H 9.12e-6 Z" /></clipPath><clipPath
       id="clipPath38"
       clipPathUnits="userSpaceOnUse"><path
         style="clip-rule:evenodd"
         id="path36"
         d="M 9.12e-6,0 H 612.00001 V 792 H 9.12e-6 Z" /></clipPath><clipPath
       id="clipPath50"
       clipPathUnits="userSpaceOnUse"><path
         style="clip-rule:evenodd"
         id="path48"
         d="M 9.12e-6,0 H 612.00001 V 792 H 9.12e-6 Z" /></clipPath><clipPath
       id="clipPath58"
       clipPathUnits="userSpaceOnUse"><path
         style="clip-rule:evenodd"
         id="path56"
         d="M 9.12e-6,0 H 612.00001 V 792 H 9.12e-6 Z" /></clipPath><clipPath
       id="clipPath70"
       clipPathUnits="userSpaceOnUse"><path
         style="clip-rule:evenodd"
         id="path68"
         d="M 9.12e-6,0 H 612.00001 V 792 H 9.12e-6 Z" /></clipPath><clipPath
       id="clipPath82"
       clipPathUnits="userSpaceOnUse"><path
         style="clip-rule:evenodd"
         id="path80"
         d="M 9.12e-6,0 H 612.00001 V 792 H 9.12e-6 Z" /></clipPath><clipPath
       id="clipPath94"
       clipPathUnits="userSpaceOnUse"><path
         style="clip-rule:evenodd"
         id="path92"
         d="M 9.12e-6,0 H 612.00001 V 792 H 9.12e-6 Z" /></clipPath><clipPath
       id="clipPath102"
       clipPathUnits="userSpaceOnUse"><path
         style="clip-rule:evenodd"
         id="path100"
         d="M 9.12e-6,0 H 612.00001 V 792 H 9.12e-6 Z" /></clipPath><clipPath
       id="clipPath114"
       clipPathUnits="userSpaceOnUse"><path
         style="clip-rule:evenodd"
         id="path112"
         d="M 9.12e-6,0 H 612.00001 V 792 H 9.12e-6 Z" /></clipPath><clipPath
       id="clipPath126"
       clipPathUnits="userSpaceOnUse"><path
         style="clip-rule:evenodd"
         id="path124"
         d="M 9.12e-6,0 H 612.00001 V 792 H 9.12e-6 Z" /></clipPath><clipPath
       id="clipPath138"
       clipPathUnits="userSpaceOnUse"><path
         style="clip-rule:evenodd"
         id="path136"
         d="M 9.12e-6,0 H 612.00001 V 792 H 9.12e-6 Z" /></clipPath><clipPath
       id="clipPath150"
       clipPathUnits="userSpaceOnUse"><path
         style="clip-rule:evenodd"
         id="path148"
         d="M 9.12e-6,0 H 612.00001 V 792 H 9.12e-6 Z" /></clipPath><clipPath
       id="clipPath162"
       clipPathUnits="userSpaceOnUse"><path
         style="clip-rule:evenodd"
         id="path160"
         d="M 9.12e-6,0 H 612.00001 V 792 H 9.12e-6 Z" /></clipPath><clipPath
       id="clipPath174"
       clipPathUnits="userSpaceOnUse"><path
         style="clip-rule:evenodd"
         id="path172"
         d="M 9.12e-6,0 H 612.00001 V 792 H 9.12e-6 Z" /></clipPath><clipPath
       id="clipPath186"
       clipPathUnits="userSpaceOnUse"><path
         style="clip-rule:evenodd"
         id="path184"
         d="M 9.12e-6,0 H 612.00001 V 792 H 9.12e-6 Z" /></clipPath><clipPath
       id="clipPath194"
       clipPathUnits="userSpaceOnUse"><path
         style="clip-rule:evenodd"
         id="path192"
         d="M 9.12e-6,0 H 612.00001 V 792 H 9.12e-6 Z" /></clipPath><clipPath
       id="clipPath206"
       clipPathUnits="userSpaceOnUse"><path
         style="clip-rule:evenodd"
         id="path204"
         d="M 9.12e-6,0 H 612.00001 V 792 H 9.12e-6 Z" /></clipPath><clipPath
       id="clipPath218"
       clipPathUnits="userSpaceOnUse"><path
         style="clip-rule:evenodd"
         id="path216"
         d="M 9.12e-6,0 H 612.00001 V 792 H 9.12e-6 Z" /></clipPath><clipPath
       id="clipPath230"
       clipPathUnits="userSpaceOnUse"><path
         style="clip-rule:evenodd"
         id="path228"
         d="M 9.12e-6,0 H 612.00001 V 792 H 9.12e-6 Z" /></clipPath><clipPath
       id="clipPath242"
       clipPathUnits="userSpaceOnUse"><path
         style="clip-rule:evenodd"
         id="path240"
         d="M 9.12e-6,0 H 612.00001 V 792 H 9.12e-6 Z" /></clipPath><clipPath
       id="clipPath254"
       clipPathUnits="userSpaceOnUse"><path
         style="clip-rule:evenodd"
         id="path252"
         d="M 9.12e-6,0 H 612.00001 V 792 H 9.12e-6 Z" /></clipPath><clipPath
       id="clipPath262"
       clipPathUnits="userSpaceOnUse"><path
         style="clip-rule:evenodd"
         id="path260"
         d="M 9.12e-6,0 H 612.00001 V 792 H 9.12e-6 Z" /></clipPath><clipPath
       id="clipPath274"
       clipPathUnits="userSpaceOnUse"><path
         style="clip-rule:evenodd"
         id="path272"
         d="M 9.12e-6,0 H 612.00001 V 792 H 9.12e-6 Z" /></clipPath><clipPath
       id="clipPath286"
       clipPathUnits="userSpaceOnUse"><path
         style="clip-rule:evenodd"
         id="path284"
         d="M 9.12e-6,0 H 612.00001 V 792 H 9.12e-6 Z" /></clipPath><clipPath
       id="clipPath298"
       clipPathUnits="userSpaceOnUse"><path
         style="clip-rule:evenodd"
         id="path296"
         d="M 9.12e-6,0 H 612.00001 V 792 H 9.12e-6 Z" /></clipPath><clipPath
       id="clipPath310"
       clipPathUnits="userSpaceOnUse"><path
         style="clip-rule:evenodd"
         id="path308"
         d="M 9.12e-6,0 H 612.00001 V 792 H 9.12e-6 Z" /></clipPath><clipPath
       id="clipPath318"
       clipPathUnits="userSpaceOnUse"><path
         style="clip-rule:evenodd"
         id="path316"
         d="M 9.12e-6,0 H 612.00001 V 792 H 9.12e-6 Z" /></clipPath><clipPath
       id="clipPath330"
       clipPathUnits="userSpaceOnUse"><path
         style="clip-rule:evenodd"
         id="path328"
         d="M 9.12e-6,0 H 612.00001 V 792 H 9.12e-6 Z" /></clipPath><clipPath
       id="clipPath342"
       clipPathUnits="userSpaceOnUse"><path
         style="clip-rule:evenodd"
         id="path340"
         d="M 9.12e-6,0 H 612.00001 V 792 H 9.12e-6 Z" /></clipPath><clipPath
       id="clipPath354"
       clipPathUnits="userSpaceOnUse"><path
         style="clip-rule:evenodd"
         id="path352"
         d="M 9.12e-6,0 H 612.00001 V 792 H 9.12e-6 Z" /></clipPath><clipPath
       id="clipPath366"
       clipPathUnits="userSpaceOnUse"><path
         style="clip-rule:evenodd"
         id="path364"
         d="M 9.12e-6,0 H 612.00001 V 792 H 9.12e-6 Z" /></clipPath><clipPath
       id="clipPath378"
       clipPathUnits="userSpaceOnUse"><path
         style="clip-rule:evenodd"
         id="path376"
         d="M 9.12e-6,0 H 612.00001 V 792 H 9.12e-6 Z" /></clipPath><clipPath
       id="clipPath386"
       clipPathUnits="userSpaceOnUse"><path
         style="clip-rule:evenodd"
         id="path384"
         d="M 9.12e-6,0 H 612.00001 V 792 H 9.12e-6 Z" /></clipPath><clipPath
       id="clipPath398"
       clipPathUnits="userSpaceOnUse"><path
         style="clip-rule:evenodd"
         id="path396"
         d="M 9.12e-6,0 H 612.00001 V 792 H 9.12e-6 Z" /></clipPath><clipPath
       id="clipPath410"
       clipPathUnits="userSpaceOnUse"><path
         style="clip-rule:evenodd"
         id="path408"
         d="M 9.12e-6,0 H 612.00001 V 792 H 9.12e-6 Z" /></clipPath><clipPath
       id="clipPath422"
       clipPathUnits="userSpaceOnUse"><path
         style="clip-rule:evenodd"
         id="path420"
         d="M 9.12e-6,0 H 612.00001 V 792 H 9.12e-6 Z" /></clipPath><clipPath
       id="clipPath434"
       clipPathUnits="userSpaceOnUse"><path
         style="clip-rule:evenodd"
         id="path432"
         d="M 9.12e-6,0 H 612.00001 V 792 H 9.12e-6 Z" /></clipPath><clipPath
       id="clipPath446"
       clipPathUnits="userSpaceOnUse"><path
         style="clip-rule:evenodd"
         id="path444"
         d="M 9.12e-6,0 H 612.00001 V 792 H 9.12e-6 Z" /></clipPath><clipPath
       id="clipPath454"
       clipPathUnits="userSpaceOnUse"><path
         style="clip-rule:evenodd"
         id="path452"
         d="M 9.12e-6,0 H 612.00001 V 792 H 9.12e-6 Z" /></clipPath><clipPath
       id="clipPath466"
       clipPathUnits="userSpaceOnUse"><path
         style="clip-rule:evenodd"
         id="path464"
         d="M 9.12e-6,0 H 612.00001 V 792 H 9.12e-6 Z" /></clipPath><clipPath
       id="clipPath478"
       clipPathUnits="userSpaceOnUse"><path
         style="clip-rule:evenodd"
         id="path476"
         d="M 9.12e-6,0 H 612.00001 V 792 H 9.12e-6 Z" /></clipPath><clipPath
       id="clipPath490"
       clipPathUnits="userSpaceOnUse"><path
         style="clip-rule:evenodd"
         id="path488"
         d="M 9.12e-6,0 H 612.00001 V 792 H 9.12e-6 Z" /></clipPath><clipPath
       id="clipPath502"
       clipPathUnits="userSpaceOnUse"><path
         style="clip-rule:evenodd"
         id="path500"
         d="M 9.12e-6,0 H 612.00001 V 792 H 9.12e-6 Z" /></clipPath><clipPath
       id="clipPath514"
       clipPathUnits="userSpaceOnUse"><path
         style="clip-rule:evenodd"
         id="path512"
         d="M 9.12e-6,0 H 612.00001 V 792 H 9.12e-6 Z" /></clipPath><clipPath
       id="clipPath526"
       clipPathUnits="userSpaceOnUse"><path
         style="clip-rule:evenodd"
         id="path524"
         d="M 9.12e-6,0 H 612.00001 V 792 H 9.12e-6 Z" /></clipPath><clipPath
       id="clipPath534"
       clipPathUnits="userSpaceOnUse"><path
         style="clip-rule:evenodd"
         id="path532"
         d="M 9.12e-6,0 H 612.00001 V 792 H 9.12e-6 Z" /></clipPath><clipPath
       id="clipPath546"
       clipPathUnits="userSpaceOnUse"><path
         style="clip-rule:evenodd"
         id="path544"
         d="M 9.12e-6,0 H 612.00001 V 792 H 9.12e-6 Z" /></clipPath><clipPath
       id="clipPath558"
       clipPathUnits="userSpaceOnUse"><path
         style="clip-rule:evenodd"
         id="path556"
         d="M 9.12e-6,0 H 612.00001 V 792 H 9.12e-6 Z" /></clipPath><clipPath
       id="clipPath566"
       clipPathUnits="userSpaceOnUse"><path
         style="clip-rule:evenodd"
         id="path564"
         d="M 9.12e-6,0 H 612.00001 V 792 H 9.12e-6 Z" /></clipPath><clipPath
       id="clipPath578"
       clipPathUnits="userSpaceOnUse"><path
         style="clip-rule:evenodd"
         id="path576"
         d="M 9.12e-6,0 H 612.00001 V 792 H 9.12e-6 Z" /></clipPath><clipPath
       id="clipPath590"
       clipPathUnits="userSpaceOnUse"><path
         style="clip-rule:evenodd"
         id="path588"
         d="M 9.12e-6,0 H 612.00001 V 792 H 9.12e-6 Z" /></clipPath><clipPath
       id="clipPath602"
       clipPathUnits="userSpaceOnUse"><path
         style="clip-rule:evenodd"
         id="path600"
         d="M 9.12e-6,0 H 612.00001 V 792 H 9.12e-6 Z" /></clipPath><clipPath
       id="clipPath614"
       clipPathUnits="userSpaceOnUse"><path
         style="clip-rule:evenodd"
         id="path612"
         d="M 9.12e-6,0 H 612.00001 V 792 H 9.12e-6 Z" /></clipPath><clipPath
       id="clipPath622"
       clipPathUnits="userSpaceOnUse"><path
         style="clip-rule:evenodd"
         id="path620"
         d="M 9.12e-6,0 H 612.00001 V 792 H 9.12e-6 Z" /></clipPath><clipPath
       id="clipPath634"
       clipPathUnits="userSpaceOnUse"><path
         style="clip-rule:evenodd"
         id="path632"
         d="M 9.12e-6,0 H 612.00001 V 792 H 9.12e-6 Z" /></clipPath><clipPath
       id="clipPath646"
       clipPathUnits="userSpaceOnUse"><path
         style="clip-rule:evenodd"
         id="path644"
         d="M 9.12e-6,0 H 612.00001 V 792 H 9.12e-6 Z" /></clipPath><clipPath
       id="clipPath658"
       clipPathUnits="userSpaceOnUse"><path
         style="clip-rule:evenodd"
         id="path656"
         d="M 9.12e-6,0 H 612.00001 V 792 H 9.12e-6 Z" /></clipPath><clipPath
       id="clipPath670"
       clipPathUnits="userSpaceOnUse"><path
         style="clip-rule:evenodd"
         id="path668"
         d="M 9.12e-6,0 H 612.00001 V 792 H 9.12e-6 Z" /></clipPath><clipPath
       id="clipPath682"
       clipPathUnits="userSpaceOnUse"><path
         style="clip-rule:evenodd"
         id="path680"
         d="M 9.12e-6,0 H 612.00001 V 792 H 9.12e-6 Z" /></clipPath><clipPath
       id="clipPath690"
       clipPathUnits="userSpaceOnUse"><path
         style="clip-rule:evenodd"
         id="path688"
         d="M 9.12e-6,0 H 612.00001 V 792 H 9.12e-6 Z" /></clipPath><clipPath
       id="clipPath702"
       clipPathUnits="userSpaceOnUse"><path
         style="clip-rule:evenodd"
         id="path700"
         d="M 9.12e-6,0 H 612.00001 V 792 H 9.12e-6 Z" /></clipPath><clipPath
       id="clipPath714"
       clipPathUnits="userSpaceOnUse"><path
         style="clip-rule:evenodd"
         id="path712"
         d="M 9.12e-6,0 H 612.00001 V 792 H 9.12e-6 Z" /></clipPath><clipPath
       id="clipPath726"
       clipPathUnits="userSpaceOnUse"><path
         style="clip-rule:evenodd"
         id="path724"
         d="M 9.12e-6,0 H 612.00001 V 792 H 9.12e-6 Z" /></clipPath><clipPath
       id="clipPath738"
       clipPathUnits="userSpaceOnUse"><path
         style="clip-rule:evenodd"
         id="path736"
         d="M 9.12e-6,0 H 612.00001 V 792 H 9.12e-6 Z" /></clipPath><clipPath
       id="clipPath750"
       clipPathUnits="userSpaceOnUse"><path
         style="clip-rule:evenodd"
         id="path748"
         d="M 9.12e-6,0 H 612.00001 V 792 H 9.12e-6 Z" /></clipPath><clipPath
       id="clipPath762"
       clipPathUnits="userSpaceOnUse"><path
         style="clip-rule:evenodd"
         id="path760"
         d="M 9.12e-6,0 H 612.00001 V 792 H 9.12e-6 Z" /></clipPath><clipPath
       id="clipPath774"
       clipPathUnits="userSpaceOnUse"><path
         style="clip-rule:evenodd"
         id="path772"
         d="M 9.12e-6,0 H 612.00001 V 792 H 9.12e-6 Z" /></clipPath><clipPath
       id="clipPath786"
       clipPathUnits="userSpaceOnUse"><path
         style="clip-rule:evenodd"
         id="path784"
         d="M 9.12e-6,0 H 612.00001 V 792 H 9.12e-6 Z" /></clipPath><clipPath
       id="clipPath798"
       clipPathUnits="userSpaceOnUse"><path
         style="clip-rule:evenodd"
         id="path796"
         d="M 9.12e-6,0 H 612.00001 V 792 H 9.12e-6 Z" /></clipPath><clipPath
       id="clipPath810"
       clipPathUnits="userSpaceOnUse"><path
         style="clip-rule:evenodd"
         id="path808"
         d="M 9.12e-6,0 H 612.00001 V 792 H 9.12e-6 Z" /></clipPath><clipPath
       id="clipPath822"
       clipPathUnits="userSpaceOnUse"><path
         style="clip-rule:evenodd"
         id="path820"
         d="M 9.12e-6,0 H 612.00001 V 792 H 9.12e-6 Z" /></clipPath><clipPath
       id="clipPath834"
       clipPathUnits="userSpaceOnUse"><path
         style="clip-rule:evenodd"
         id="path832"
         d="M 9.12e-6,0 H 612.00001 V 792 H 9.12e-6 Z" /></clipPath><clipPath
       id="clipPath846"
       clipPathUnits="userSpaceOnUse"><path
         style="clip-rule:evenodd"
         id="path844"
         d="M 9.12e-6,0 H 612.00001 V 792 H 9.12e-6 Z" /></clipPath><clipPath
       id="clipPath858"
       clipPathUnits="userSpaceOnUse"><path
         style="clip-rule:evenodd"
         id="path856"
         d="M 9.12e-6,0 H 612.00001 V 792 H 9.12e-6 Z" /></clipPath><clipPath
       id="clipPath870"
       clipPathUnits="userSpaceOnUse"><path
         style="clip-rule:evenodd"
         id="path868"
         d="M 9.12e-6,0 H 612.00001 V 792 H 9.12e-6 Z" /></clipPath><clipPath
       id="clipPath882"
       clipPathUnits="userSpaceOnUse"><path
         style="clip-rule:evenodd"
         id="path880"
         d="M 9.12e-6,0 H 612.00001 V 792 H 9.12e-6 Z" /></clipPath><clipPath
       id="clipPath894"
       clipPathUnits="userSpaceOnUse"><path
         style="clip-rule:evenodd"
         id="path892"
         d="M 9.12e-6,0 H 612.00001 V 792 H 9.12e-6 Z" /></clipPath><clipPath
       id="clipPath906"
       clipPathUnits="userSpaceOnUse"><path
         style="clip-rule:evenodd"
         id="path904"
         d="M 9.12e-6,0 H 612.00001 V 792 H 9.12e-6 Z" /></clipPath></defs><g
     transform="matrix(1.3333333,0,0,-1.3333333,0,1056)"
     id="g10"><g
       id="g12"><g
         clip-path="url(#clipPath18)"
         id="g14"><text
           id="text22"
           style="font-variant:normal;font-weight:normal;font-size:10.56000042px;font-family:'Courier 10 Pitch';-inkscape-font-specification:CourierNewPSMT;writing-mode:lr-tb;fill:#000000;fill-opacity:1;fill-rule:nonzero;stroke:none"
           transform="matrix(1,0,0,-1,75.024,710.98)"><tspan
             id="tspan20"
             y="0"
             x="0 6.336 12.71424 18.9552 25.291201 31.55328 37.889278 44.15136 50.487358 56.749439 63.085442 69.347519 75.683517 81.945602 88.281601 94.543678 100.87968 107.14176 113.47776 119.73984 126.07584 132.45409 138.69504 145.03104 151.29312 157.62912 163.8912 170.2272">digraph &quot;classes_animator&quot; {</tspan></text>
</g></g><g
       id="g24"><g
         clip-path="url(#clipPath30)"
         id="g26" /></g><g
       id="g32"><g
         clip-path="url(#clipPath38)"
         id="g34"><text
           id="text42"
           style="font-variant:normal;font-weight:normal;font-size:10.56000042px;font-family:'Courier 10 Pitch';-inkscape-font-specification:CourierNewPSMT;writing-mode:lr-tb;fill:#000000;fill-opacity:1;fill-rule:nonzero;stroke:none"
           transform="matrix(1,0,0,-1,75.024,699.1)"><tspan
             id="tspan40"
             y="0"
             x="0 6.336 12.71424 18.9552 25.291201 31.55328 37.889278 44.15136 50.487358 56.749439">rankdir=BT</tspan></text>
</g></g><g
       id="g44"><g
         clip-path="url(#clipPath50)"
         id="g46" /></g><g
       id="g52"><g
         clip-path="url(#clipPath58)"
         id="g54"><text
           id="text62"
           style="font-variant:normal;font-weight:normal;font-size:10.56000042px;font-family:'Courier 10 Pitch';-inkscape-font-specification:CourierNewPSMT;writing-mode:lr-tb;fill:#000000;fill-opacity:1;fill-rule:nonzero;stroke:none"
           transform="matrix(1,0,0,-1,75.024,687.22)"><tspan
             id="tspan60"
             y="0"
             x="0 6.336 12.71424 18.9552 25.291201 31.55328 37.889278 44.15136 50.487358 56.749439 63.085442 69.347519">charset=&quot;utf</tspan></text>
</g></g><g
       id="g64"><g
         clip-path="url(#clipPath70)"
         id="g66"><text
           id="text74"
           style="font-variant:normal;font-weight:normal;font-size:10.56000042px;font-family:'Courier 10 Pitch';-inkscape-font-specification:CourierNewPSMT;writing-mode:lr-tb;fill:#000000;fill-opacity:1;fill-rule:nonzero;stroke:none"
           transform="matrix(1,0,0,-1,150.74,687.22)"><tspan
             id="tspan72"
             y="0"
             x="0">-</tspan></text>
</g></g><g
       id="g76"><g
         clip-path="url(#clipPath82)"
         id="g78"><text
           id="text86"
           style="font-variant:normal;font-weight:normal;font-size:10.56000042px;font-family:'Courier 10 Pitch';-inkscape-font-specification:CourierNewPSMT;writing-mode:lr-tb;fill:#000000;fill-opacity:1;fill-rule:nonzero;stroke:none"
           transform="matrix(1,0,0,-1,156.98,687.22)"><tspan
             id="tspan84"
             y="0"
             x="0 6.3600001">8&quot;</tspan></text>
</g></g><g
       id="g88"><g
         clip-path="url(#clipPath94)"
         id="g90" /></g><g
       id="g96"><g
         clip-path="url(#clipPath102)"
         id="g98"><text
           id="text106"
           style="font-variant:normal;font-weight:normal;font-size:10.56000042px;font-family:'Courier 10 Pitch';-inkscape-font-specification:CourierNewPSMT;writing-mode:lr-tb;fill:#000000;fill-opacity:1;fill-rule:nonzero;stroke:none"
           transform="matrix(1,0,0,-1,75.024,675.34)"><tspan
             id="tspan104"
             y="0"
             x="0 6.336 12.71424 18.9552 25.291201 31.55328 37.889278 44.15136 50.487358 56.749439 63.085442 69.347519 75.683517 81.945602 88.281601 94.543678 100.87968 107.14176 113.47776 119.73984 126.07584 132.45409 138.69504 145.03104 151.29312 157.62912 163.8912 170.2272 176.48927 182.82529 189.08736 195.42336 201.68544 208.02144 214.28352 220.61952 226.88161 233.21761 239.47968 245.81567 252.19392 258.43488 264.77087 271.03296 277.36896 283.63104 289.96704 296.22913 302.56512 308.82721 315.16321 321.42529 327.76129 334.02335 340.35938 346.62143 352.95743 359.21951 365.55551 371.93375 378.17471 384.51071 390.7728 397.1088 403.37088 409.70688 415.96896 422.30496 428.56705 434.90305 441.16513 447.50113 453.76321">&quot;azee_animator.error.AZeeAnimatorError&quot; [color=&quot;black&quot;, fontcolor=&quot;red&quot;, </tspan></text>
</g></g><g
       id="g108"><g
         clip-path="url(#clipPath114)"
         id="g110"><text
           id="text118"
           style="font-variant:normal;font-weight:normal;font-size:10.56000042px;font-family:'Courier 10 Pitch';-inkscape-font-specification:CourierNewPSMT;writing-mode:lr-tb;fill:#000000;fill-opacity:1;fill-rule:nonzero;stroke:none"
           transform="matrix(1,0,0,-1,75.024,663.46)"><tspan
             id="tspan116"
             y="0"
             x="0 6.336 12.71424 18.9552 25.291201 31.55328 37.889278 44.15136 50.487358 56.749439 63.085442 69.347519 75.683517 81.945602 88.281601 94.543678 100.87968 107.14176 113.47776 119.73984 126.07584 132.45409 138.69504 145.03104 151.29312 157.62912 163.8912 170.2272 176.48927 182.82529 189.08736 195.42336 201.68544 208.02144 214.28352 220.61952 226.88161 233.21761 239.47968 245.81567 252.19392 258.43488 264.77087 271.03296 277.36896 283.63104 289.96704 296.22913 302.56512 308.82721 315.16321 321.42529 327.76129 334.02335 340.35938 346.62143 352.95743 359.21951 365.55551 371.93375 378.17471 384.51071 390.7728 397.1088 403.37088 409.70688 415.96896 422.30496 428.56705">label=&lt;{AZeeAnimatorError|msg&lt;br ALIGN=&quot;LEFT&quot;/&gt;src_pos : NoneType&lt;br </tspan></text>
</g></g><g
       id="g120"><g
         clip-path="url(#clipPath126)"
         id="g122"><text
           id="text130"
           style="font-variant:normal;font-weight:normal;font-size:10.56000042px;font-family:'Courier 10 Pitch';-inkscape-font-specification:CourierNewPSMT;writing-mode:lr-tb;fill:#000000;fill-opacity:1;fill-rule:nonzero;stroke:none"
           transform="matrix(1,0,0,-1,75.024,651.46)"><tspan
             id="tspan128"
             y="0"
             x="0 6.336 12.71424 18.9552 25.291201 31.55328 37.889278 44.15136 50.487358 56.749439 63.085442 69.347519 75.683517 81.945602 88.281601 94.543678 100.87968 107.14176 113.47776 119.73984 126.07584 132.45409 138.69504 145.03104 151.29312 157.62912 163.8912 170.2272 176.48927 182.82529 189.08736 195.42336 201.68544 208.02144 214.28352 220.61952 226.88161 233.21761 239.47968 245.81567 252.19392 258.43488 264.77087 271.03296 277.36896 283.63104 289.96704 296.22913 302.56512 308.82721 315.16321 321.42529 327.76129 334.02335 340.35938">ALIGN=&quot;LEFT&quot;/&gt;|descr(lvlPrefix)&lt;br ALIGN=&quot;LEFT&quot;/&gt;positi</tspan></text>
</g></g><g
       id="g132"><g
         clip-path="url(#clipPath138)"
         id="g134"><text
           id="text142"
           style="font-variant:normal;font-weight:normal;font-size:10.56000042px;font-family:'Courier 10 Pitch';-inkscape-font-specification:CourierNewPSMT;writing-mode:lr-tb;fill:#000000;fill-opacity:1;fill-rule:nonzero;stroke:none"
           transform="matrix(1,0,0,-1,421.75,651.46)"><tspan
             id="tspan140"
             y="0"
             x="0 6.336 12.59808 18.93408 25.312321 31.55328 37.889278 44.15136">on()&lt;br </tspan></text>
</g></g><g
       id="g144"><g
         clip-path="url(#clipPath150)"
         id="g146"><text
           id="text154"
           style="font-variant:normal;font-weight:normal;font-size:10.56000042px;font-family:'Courier 10 Pitch';-inkscape-font-specification:CourierNewPSMT;writing-mode:lr-tb;fill:#000000;fill-opacity:1;fill-rule:nonzero;stroke:none"
           transform="matrix(1,0,0,-1,75.024,639.58)"><tspan
             id="tspan152"
             y="0"
             x="0 6.336 12.71424 18.9552 25.291201 31.55328 37.889278 44.15136 50.487358 56.749439 63.085442 69.347519 75.683517 81.945602 88.281601 94.543678 100.87968 107.14176 113.47776 119.73984 126.07584 132.45409 138.69504 145.03104 151.29312 157.62912 163.8912 170.2272 176.48927 182.82529 189.08736 195.42336 201.68544 208.02144 214.28352 220.61952 226.88161 233.21761 239.47968 245.81567 252.19392 258.43488 264.77087 271.03296 277.36896 283.63104 289.96704 296.22913 302.56512 308.82721 315.16321 321.42529 327.76129 334.02335 340.35938 346.62143 352.95743 359.21951 365.55551 371.93375 378.17471 384.51071 390.7728 397.1088 403.37088 409.70688 415.96896">ALIGN=&quot;LEFT&quot;/&gt;setSrcPos(src_pos)&lt;br ALIGN=&quot;LEFT&quot;/&gt;stderrError()&lt;br </tspan></text>
</g></g><g
       id="g156"><g
         clip-path="url(#clipPath162)"
         id="g158"><text
           id="text166"
           style="font-variant:normal;font-weight:normal;font-size:10.56000042px;font-family:'Courier 10 Pitch';-inkscape-font-specification:CourierNewPSMT;writing-mode:lr-tb;fill:#000000;fill-opacity:1;fill-rule:nonzero;stroke:none"
           transform="matrix(1,0,0,-1,75.024,627.7)"><tspan
             id="tspan164"
             y="0"
             x="0 6.336 12.71424 18.9552 25.291201 31.55328 37.889278 44.15136 50.487358 56.749439 63.085442 69.347519 75.683517 81.945602 88.281601 94.543678 100.87968 107.14176 113.47776 119.73984 126.07584 132.45409 138.69504 145.03104 151.29312 157.62912 163.8912 170.2272 176.48927 182.82529 189.08736 195.42336 201.68544 208.02144 214.28352 220.61952 226.88161 233.21761 239.47968 245.81567 252.19392 258.43488 264.77087 271.03296 277.36896 283.63104 289.96704 296.22913 302.56512 308.82721 315.16321 321.42529 327.76129 334.02335 340.35938 346.62143 352.95743 359.21951 365.55551 371.93375 378.17471 384.51071 390.7728 397.1088 403.37088 409.70688 415.96896">ALIGN=&quot;LEFT&quot;/&gt;stderrWarning()&lt;br ALIGN=&quot;LEFT&quot;/&gt;}&gt;, shape=&quot;record&quot;, </tspan></text>
</g></g><g
       id="g168"><g
         clip-path="url(#clipPath174)"
         id="g170"><text
           id="text178"
           style="font-variant:normal;font-weight:normal;font-size:10.56000042px;font-family:'Courier 10 Pitch';-inkscape-font-specification:CourierNewPSMT;writing-mode:lr-tb;fill:#000000;fill-opacity:1;fill-rule:nonzero;stroke:none"
           transform="matrix(1,0,0,-1,75.024,615.82)"><tspan
             id="tspan176"
             y="0"
             x="0 6.336 12.71424 18.9552 25.291201 31.55328 37.889278 44.15136 50.487358 56.749439 63.085442 69.347519 75.683517 81.945602 88.281601">style=&quot;solid&quot;];</tspan></text>
</g></g><g
       id="g180"><g
         clip-path="url(#clipPath186)"
         id="g182" /></g><g
       id="g188"><g
         clip-path="url(#clipPath194)"
         id="g190"><text
           id="text198"
           style="font-variant:normal;font-weight:normal;font-size:10.56000042px;font-family:'Courier 10 Pitch';-inkscape-font-specification:CourierNewPSMT;writing-mode:lr-tb;fill:#000000;fill-opacity:1;fill-rule:nonzero;stroke:none"
           transform="matrix(1,0,0,-1,75.024,603.94)"><tspan
             id="tspan196"
             y="0"
             x="0 6.336 12.71424 18.9552 25.291201 31.55328 37.889278 44.15136 50.487358 56.749439 63.085442 69.347519 75.683517 81.945602 88.281601 94.543678 100.87968 107.14176 113.47776 119.73984 126.07584 132.45409 138.69504 145.03104 151.29312 157.62912 163.8912 170.2272 176.48927 182.82529 189.08736 195.42336 201.68544 208.02144 214.28352 220.61952 226.88161 233.21761 239.47968 245.81567 252.19392 258.43488 264.77087 271.03296 277.36896 283.63104 289.96704 296.22913 302.56512 308.82721 315.16321 321.42529 327.76129 334.02335 340.35938 346.62143 352.95743 359.21951 365.55551 371.93375 378.17471 384.51071">&quot;azee_animator.preferences.AZeeAnimatorToolsAddonPreferences&quot; </tspan></text>
</g></g><g
       id="g200"><g
         clip-path="url(#clipPath206)"
         id="g202"><text
           id="text210"
           style="font-variant:normal;font-weight:normal;font-size:10.56000042px;font-family:'Courier 10 Pitch';-inkscape-font-specification:CourierNewPSMT;writing-mode:lr-tb;fill:#000000;fill-opacity:1;fill-rule:nonzero;stroke:none"
           transform="matrix(1,0,0,-1,75.024,592.06)"><tspan
             id="tspan208"
             y="0"
             x="0 6.336 12.71424 18.9552 25.291201 31.55328 37.889278 44.15136 50.487358 56.749439 63.085442 69.347519 75.683517 81.945602 88.281601 94.543678 100.87968 107.14176 113.47776 119.73984 126.07584 132.45409 138.69504 145.03104 151.29312 157.62912 163.8912 170.2272 176.48927 182.82529 189.08736 195.42336 201.68544 208.02144 214.28352">[color=&quot;black&quot;, fontcolor=&quot;black&quot;, </tspan></text>
</g></g><g
       id="g212"><g
         clip-path="url(#clipPath218)"
         id="g214"><text
           id="text222"
           style="font-variant:normal;font-weight:normal;font-size:10.56000042px;font-family:'Courier 10 Pitch';-inkscape-font-specification:CourierNewPSMT;writing-mode:lr-tb;fill:#000000;fill-opacity:1;fill-rule:nonzero;stroke:none"
           transform="matrix(1,0,0,-1,75.024,580.18)"><tspan
             id="tspan220"
             y="0"
             x="0 6.336 12.71424 18.9552 25.291201 31.55328 37.889278 44.15136 50.487358 56.749439 63.085442 69.347519 75.683517 81.945602 88.281601 94.543678 100.87968 107.14176 113.47776 119.73984 126.07584 132.45409 138.69504 145.03104 151.29312 157.62912 163.8912 170.2272 176.48927 182.82529 189.08736 195.42336 201.68544 208.02144 214.28352 220.61952 226.88161 233.21761 239.47968 245.81567 252.19392 258.43488 264.77087 271.03296 277.36896 283.63104 289.96704 296.22913 302.56512 308.82721 315.16321 321.42529 327.76129 334.02335 340.35938 346.62143 352.95743 359.21951 365.55551 371.93375 378.17471">label=&lt;{AZeeAnimatorToolsAddonPreferences|bl_idname : str&lt;br </tspan></text>
</g></g><g
       id="g224"><g
         clip-path="url(#clipPath230)"
         id="g226"><text
           id="text234"
           style="font-variant:normal;font-weight:normal;font-size:10.56000042px;font-family:'Courier 10 Pitch';-inkscape-font-specification:CourierNewPSMT;writing-mode:lr-tb;fill:#000000;fill-opacity:1;fill-rule:nonzero;stroke:none"
           transform="matrix(1,0,0,-1,75.024,568.3)"><tspan
             id="tspan232"
             y="0"
             x="0 6.336 12.71424 18.9552 25.291201 31.55328 37.889278 44.15136 50.487358 56.749439 63.085442 69.347519 75.683517 81.945602 88.281601 94.543678 100.87968 107.14176 113.47776 119.73984 126.07584 132.45409 138.69504 145.03104 151.29312 157.62912 163.8912 170.2272 176.48927 182.82529 189.08736 195.42336 201.68544 208.02144 214.28352 220.61952 226.88161 233.21761 239.47968 245.81567 252.19392 258.43488 264.77087 271.03296 277.36896 283.63104 289.96704 296.22913 302.56512 308.82721 315.16321 321.42529 327.76129 334.02335 340.35938 346.62143 352.95743">ALIGN=&quot;LEFT&quot;/&gt;show_logs&lt;br ALIGN=&quot;LEFT&quot;/&gt;|draw(_context: </tspan></text>
</g></g><g
       id="g236"><g
         clip-path="url(#clipPath242)"
         id="g238"><text
           id="text246"
           style="font-variant:normal;font-weight:normal;font-size:10.56000042px;font-family:'Courier 10 Pitch';-inkscape-font-specification:CourierNewPSMT;writing-mode:lr-tb;fill:#000000;fill-opacity:1;fill-rule:nonzero;stroke:none"
           transform="matrix(1,0,0,-1,75.024,556.3)"><tspan
             id="tspan244"
             y="0"
             x="0 6.336 12.71424 18.9552 25.291201 31.55328 37.889278 44.15136 50.487358 56.749439 63.085442 69.347519 75.683517 81.945602 88.281601 94.543678 100.87968 107.14176 113.47776 119.73984 126.07584 132.45409 138.69504 145.03104 151.29312 157.62912 163.8912 170.2272 176.48927 182.82529 189.08736 195.42336 201.68544 208.02144 214.28352 220.61952 226.88161 233.21761 239.47968 245.81567 252.19392 258.43488 264.77087 271.03296 277.36896 283.63104 289.96704 296.22913 302.56512 308.82721 315.16321 321.42529 327.76129 334.02335 340.35938 346.62143 352.95743 359.21951 365.55551 371.93375 378.17471 384.51071 390.7728 397.1088 403.37088 409.70688 415.96896 422.30496 428.56705 434.90305 441.16513">bpy.types.Context)&lt;br ALIGN=&quot;LEFT&quot;/&gt;}&gt;, shape=&quot;record&quot;, style=&quot;solid&quot;];</tspan></text>
</g></g><g
       id="g248"><g
         clip-path="url(#clipPath254)"
         id="g250" /></g><g
       id="g256"><g
         clip-path="url(#clipPath262)"
         id="g258"><text
           id="text266"
           style="font-variant:normal;font-weight:normal;font-size:10.56000042px;font-family:'Courier 10 Pitch';-inkscape-font-specification:CourierNewPSMT;writing-mode:lr-tb;fill:#000000;fill-opacity:1;fill-rule:nonzero;stroke:none"
           transform="matrix(1,0,0,-1,75.024,544.39)"><tspan
             id="tspan264"
             y="0"
             x="0 6.336 12.71424 18.9552 25.291201 31.55328 37.889278 44.15136 50.487358 56.749439 63.085442 69.347519 75.683517 81.945602 88.281601 94.543678 100.87968 107.14176 113.47776 119.73984 126.07584 132.45409 138.69504 145.03104 151.29312 157.62912 163.8912 170.2272 176.48927 182.82529 189.08736 195.42336 201.68544 208.02144 214.28352 220.61952 226.88161 233.21761 239.47968 245.81567 252.19392 258.43488 264.77087 271.03296 277.36896 283.63104 289.96704 296.22913 302.56512 308.82721 315.16321 321.42529 327.76129 334.02335 340.35938 346.62143 352.95743 359.21951 365.55551 371.93375 378.17471 384.51071 390.7728 397.1088">&quot;azee_animator.shortcutaction.ActionParameters&quot; [color=&quot;black&quot;, </tspan></text>
</g></g><g
       id="g268"><g
         clip-path="url(#clipPath274)"
         id="g270"><text
           id="text278"
           style="font-variant:normal;font-weight:normal;font-size:10.56000042px;font-family:'Courier 10 Pitch';-inkscape-font-specification:CourierNewPSMT;writing-mode:lr-tb;fill:#000000;fill-opacity:1;fill-rule:nonzero;stroke:none"
           transform="matrix(1,0,0,-1,75.024,532.51)"><tspan
             id="tspan276"
             y="0"
             x="0">f</tspan></text>
</g></g><g
       id="g280"><g
         clip-path="url(#clipPath286)"
         id="g282"><text
           id="text290"
           style="font-variant:normal;font-weight:normal;font-size:10.56000042px;font-family:'Courier 10 Pitch';-inkscape-font-specification:CourierNewPSMT;writing-mode:lr-tb;fill:#000000;fill-opacity:1;fill-rule:nonzero;stroke:none"
           transform="matrix(1,0,0,-1,81.384,532.51)"><tspan
             id="tspan288"
             y="0"
             x="0 6.336 12.59808 18.93408 25.196159 31.53216 37.794239 44.130241 50.392319 56.728321 62.990398 69.326401 75.588478 81.924477 88.186562 94.52256 100.78464 107.12064 113.38272 119.71872 126.09696 132.33792 138.67392 144.936 151.272 157.53407 163.87009 170.13216 176.46815 182.73024 189.06624 195.32832 201.66432 207.92641 214.26241 220.52448 226.86047 233.12256 239.45856 245.83681 252.07776 258.41376 264.67584 271.01184 277.27393 283.60992 289.87201 296.20801 302.47009 308.80609 315.06815 321.40417 327.66623 334.00223 340.26431 346.60031 352.8624 359.19839 365.57663 371.8176 378.15359 384.41568 390.75168 397.01376 403.34976 409.61185">ontcolor=&quot;black&quot;, label=&lt;{ActionParameters|&lt;br ALIGN=&quot;LEFT&quot;/&gt;|}&gt;, </tspan></text>
</g></g><g
       id="g292"><g
         clip-path="url(#clipPath298)"
         id="g294"><text
           id="text302"
           style="font-variant:normal;font-weight:normal;font-size:10.56000042px;font-family:'Courier 10 Pitch';-inkscape-font-specification:CourierNewPSMT;writing-mode:lr-tb;fill:#000000;fill-opacity:1;fill-rule:nonzero;stroke:none"
           transform="matrix(1,0,0,-1,75.024,520.63)"><tspan
             id="tspan300"
             y="0"
             x="0 6.336 12.71424 18.9552 25.291201 31.55328 37.889278 44.15136 50.487358 56.749439 63.085442 69.347519 75.683517 81.945602 88.281601 94.543678 100.87968 107.14176 113.47776 119.73984 126.07584 132.45409 138.69504 145.03104 151.29312 157.62912 163.8912 170.2272 176.48927 182.82529 189.08736">shape=&quot;record&quot;, style=&quot;solid&quot;];</tspan></text>
</g></g><g
       id="g304"><g
         clip-path="url(#clipPath310)"
         id="g306" /></g><g
       id="g312"><g
         clip-path="url(#clipPath318)"
         id="g314"><text
           id="text322"
           style="font-variant:normal;font-weight:normal;font-size:10.56000042px;font-family:'Courier 10 Pitch';-inkscape-font-specification:CourierNewPSMT;writing-mode:lr-tb;fill:#000000;fill-opacity:1;fill-rule:nonzero;stroke:none"
           transform="matrix(1,0,0,-1,75.024,508.75)"><tspan
             id="tspan320"
             y="0"
             x="0 6.336 12.71424 18.9552 25.291201 31.55328 37.889278 44.15136 50.487358 56.749439 63.085442 69.347519 75.683517 81.945602 88.281601 94.543678 100.87968 107.14176 113.47776 119.73984 126.07584 132.45409 138.69504 145.03104 151.29312 157.62912 163.8912 170.2272 176.48927 182.82529 189.08736 195.42336 201.68544 208.02144 214.28352 220.61952 226.88161 233.21761 239.47968 245.81567 252.19392 258.43488 264.77087 271.03296 277.36896 283.63104 289.96704 296.22913 302.56512 308.82721 315.16321 321.42529 327.76129 334.02335 340.35938 346.62143 352.95743 359.21951 365.55551 371.93375 378.17471 384.51071 390.7728 397.1088 403.37088 409.70688 415.96896">&quot;azee_animator.panels.AddSites&quot; [color=&quot;black&quot;, fontcolor=&quot;black&quot;, </tspan></text>
</g></g><g
       id="g324"><g
         clip-path="url(#clipPath330)"
         id="g326"><text
           id="text334"
           style="font-variant:normal;font-weight:normal;font-size:10.56000042px;font-family:'Courier 10 Pitch';-inkscape-font-specification:CourierNewPSMT;writing-mode:lr-tb;fill:#000000;fill-opacity:1;fill-rule:nonzero;stroke:none"
           transform="matrix(1,0,0,-1,75.024,496.87)"><tspan
             id="tspan332"
             y="0"
             x="0 6.336 12.71424 18.9552 25.291201 31.55328 37.889278 44.15136 50.487358 56.749439 63.085442 69.347519 75.683517 81.945602 88.281601 94.543678 100.87968 107.14176 113.47776 119.73984 126.07584 132.45409 138.69504 145.03104 151.29312 157.62912 163.8912 170.2272 176.48927 182.82529 189.08736 195.42336 201.68544 208.02144 214.28352 220.61952 226.88161 233.21761 239.47968 245.81567 252.19392 258.43488 264.77087 271.03296 277.36896 283.63104 289.96704 296.22913 302.56512 308.82721 315.16321 321.42529 327.76129 334.02335 340.35938 346.62143 352.95743 359.21951 365.55551 371.93375 378.17471 384.51071 390.7728 397.1088 403.37088 409.70688 415.96896 422.30496">label=&lt;{AddSites|bl_idname : str&lt;br ALIGN=&quot;LEFT&quot;/&gt;bl_label : str&lt;br </tspan></text>
</g></g><g
       id="g336"><g
         clip-path="url(#clipPath342)"
         id="g338"><text
           id="text346"
           style="font-variant:normal;font-weight:normal;font-size:10.56000042px;font-family:'Courier 10 Pitch';-inkscape-font-specification:CourierNewPSMT;writing-mode:lr-tb;fill:#000000;fill-opacity:1;fill-rule:nonzero;stroke:none"
           transform="matrix(1,0,0,-1,75.024,484.99)"><tspan
             id="tspan344"
             y="0"
             x="0 6.336 12.71424 18.9552 25.291201 31.55328 37.889278 44.15136 50.487358 56.749439 63.085442 69.347519 75.683517 81.945602 88.281601 94.543678 100.87968 107.14176 113.47776 119.73984 126.07584 132.45409">ALIGN=&quot;LEFT&quot;/&gt;bl_optio</tspan></text>
</g></g><g
       id="g348"><g
         clip-path="url(#clipPath354)"
         id="g350"><text
           id="text358"
           style="font-variant:normal;font-weight:normal;font-size:10.56000042px;font-family:'Courier 10 Pitch';-inkscape-font-specification:CourierNewPSMT;writing-mode:lr-tb;fill:#000000;fill-opacity:1;fill-rule:nonzero;stroke:none"
           transform="matrix(1,0,0,-1,213.77,484.99)"><tspan
             id="tspan356"
             y="0"
             x="0 6.336 12.59808 18.93408 25.196159 31.53216 37.794239 44.130241 50.392319 56.728321 62.990398 69.326401 75.588478 81.924477 88.186562 94.52256 100.78464 107.12064 113.49888 119.73984 126.07584 132.33792 138.67392 144.936 151.272 157.53407 163.87009 170.13216 176.46815 182.73024 189.06624 195.32832 201.66432 207.92641 214.26241 220.52448 226.86047 233.23872 239.47968 245.81567 252.07776 258.41376 264.67584 271.01184 277.27393 283.60992 289.87201">ns : set&lt;br ALIGN=&quot;LEFT&quot;/&gt;|execute(context)&lt;br </tspan></text>
</g></g><g
       id="g360"><g
         clip-path="url(#clipPath366)"
         id="g362"><text
           id="text370"
           style="font-variant:normal;font-weight:normal;font-size:10.56000042px;font-family:'Courier 10 Pitch';-inkscape-font-specification:CourierNewPSMT;writing-mode:lr-tb;fill:#000000;fill-opacity:1;fill-rule:nonzero;stroke:none"
           transform="matrix(1,0,0,-1,75.024,473.11)"><tspan
             id="tspan368"
             y="0"
             x="0 6.336 12.71424 18.9552 25.291201 31.55328 37.889278 44.15136 50.487358 56.749439 63.085442 69.347519 75.683517 81.945602 88.281601 94.543678 100.87968 107.14176 113.47776 119.73984 126.07584 132.45409 138.69504 145.03104 151.29312 157.62912 163.8912 170.2272 176.48927 182.82529 189.08736 195.42336 201.68544 208.02144 214.28352 220.61952 226.88161 233.21761 239.47968 245.81567 252.19392 258.43488 264.77087 271.03296 277.36896 283.63104 289.96704 296.22913 302.56512">ALIGN=&quot;LEFT&quot;/&gt;}&gt;, shape=&quot;record&quot;, style=&quot;solid&quot;];</tspan></text>
</g></g><g
       id="g372"><g
         clip-path="url(#clipPath378)"
         id="g374" /></g><g
       id="g380"><g
         clip-path="url(#clipPath386)"
         id="g382"><text
           id="text390"
           style="font-variant:normal;font-weight:normal;font-size:10.56000042px;font-family:'Courier 10 Pitch';-inkscape-font-specification:CourierNewPSMT;writing-mode:lr-tb;fill:#000000;fill-opacity:1;fill-rule:nonzero;stroke:none"
           transform="matrix(1,0,0,-1,75.024,461.11)"><tspan
             id="tspan388"
             y="0"
             x="0 6.336 12.71424 18.9552 25.291201 31.55328 37.889278 44.15136 50.487358 56.749439 63.085442 69.347519 75.683517 81.945602 88.281601 94.543678 100.87968 107.14176 113.47776 119.73984 126.07584 132.45409 138.69504 145.03104 151.29312 157.62912 163.8912 170.2272 176.48927 182.82529 189.08736 195.42336 201.68544 208.02144 214.28352 220.61952 226.88161 233.21761 239.47968 245.81567 252.19392 258.43488 264.77087 271.03296 277.36896 283.63104 289.96704 296.22913 302.56512 308.82721 315.16321 321.42529 327.76129 334.02335 340.35938 346.62143 352.95743 359.21951 365.55551 371.93375 378.17471 384.51071 390.7728 397.1088 403.37088 409.70688 415.96896 422.30496 428.56705 434.90305">&quot;azee_animator.panels.AddSitesXML&quot; [color=&quot;black&quot;, fontcolor=&quot;black&quot;, </tspan></text>
</g></g><g
       id="g392"><g
         clip-path="url(#clipPath398)"
         id="g394"><text
           id="text402"
           style="font-variant:normal;font-weight:normal;font-size:10.56000042px;font-family:'Courier 10 Pitch';-inkscape-font-specification:CourierNewPSMT;writing-mode:lr-tb;fill:#000000;fill-opacity:1;fill-rule:nonzero;stroke:none"
           transform="matrix(1,0,0,-1,75.024,449.23)"><tspan
             id="tspan400"
             y="0"
             x="0 6.336 12.71424 18.9552 25.291201 31.55328 37.889278 44.15136 50.487358 56.749439 63.085442 69.347519 75.683517 81.945602 88.281601 94.543678 100.87968 107.14176 113.47776 119.73984 126.07584 132.45409 138.69504 145.03104 151.29312 157.62912 163.8912 170.2272 176.48927 182.82529 189.08736 195.42336 201.68544 208.02144 214.28352 220.61952 226.88161 233.21761 239.47968 245.81567 252.19392 258.43488 264.77087 271.03296 277.36896 283.63104 289.96704 296.22913 302.56512 308.82721 315.16321 321.42529 327.76129 334.02335 340.35938 346.62143 352.95743 359.21951 365.55551 371.93375 378.17471 384.51071 390.7728 397.1088 403.37088 409.70688 415.96896 422.30496 428.56705 434.90305 441.16513">label=&lt;{AddSitesXML|bl_idname : str&lt;br ALIGN=&quot;LEFT&quot;/&gt;bl_label : str&lt;br </tspan></text>
</g></g><g
       id="g404"><g
         clip-path="url(#clipPath410)"
         id="g406"><text
           id="text414"
           style="font-variant:normal;font-weight:normal;font-size:10.56000042px;font-family:'Courier 10 Pitch';-inkscape-font-specification:CourierNewPSMT;writing-mode:lr-tb;fill:#000000;fill-opacity:1;fill-rule:nonzero;stroke:none"
           transform="matrix(1,0,0,-1,75.024,437.35)"><tspan
             id="tspan412"
             y="0"
             x="0 6.336 12.71424 18.9552 25.291201 31.55328 37.889278 44.15136 50.487358 56.749439 63.085442 69.347519 75.683517 81.945602 88.281601 94.543678 100.87968">ALIGN=&quot;LEFT&quot;/&gt;bl_</tspan></text>
</g></g><g
       id="g416"><g
         clip-path="url(#clipPath422)"
         id="g418"><text
           id="text426"
           style="font-variant:normal;font-weight:normal;font-size:10.56000042px;font-family:'Courier 10 Pitch';-inkscape-font-specification:CourierNewPSMT;writing-mode:lr-tb;fill:#000000;fill-opacity:1;fill-rule:nonzero;stroke:none"
           transform="matrix(1,0,0,-1,182.18,437.35)"><tspan
             id="tspan424"
             y="0"
             x="0 6.336 12.59808 18.93408 25.312321 31.55328 37.889278 44.15136 50.487358 56.749439 63.085442 69.347519 75.683517 81.945602 88.281601 94.543678 100.87968 107.14176 113.47776 119.73984 126.07584 132.33792 138.67392 145.05215 151.29312 157.62912 163.8912 170.2272 176.48927 182.82529 189.08736 195.42336 201.68544 208.02144 214.28352 220.61952 226.88161 233.21761 239.47968 245.81567 252.07776 258.41376 264.79199 271.03296 277.36896 283.63104 289.96704 296.22913 302.56512 308.82721 315.16321 321.42529">options : set&lt;br ALIGN=&quot;LEFT&quot;/&gt;|execute(context)&lt;br </tspan></text>
</g></g><g
       id="g428"><g
         clip-path="url(#clipPath434)"
         id="g430"><text
           id="text438"
           style="font-variant:normal;font-weight:normal;font-size:10.56000042px;font-family:'Courier 10 Pitch';-inkscape-font-specification:CourierNewPSMT;writing-mode:lr-tb;fill:#000000;fill-opacity:1;fill-rule:nonzero;stroke:none"
           transform="matrix(1,0,0,-1,75.024,425.47)"><tspan
             id="tspan436"
             y="0"
             x="0 6.336 12.71424 18.9552 25.291201 31.55328 37.889278 44.15136 50.487358 56.749439 63.085442 69.347519 75.683517 81.945602 88.281601 94.543678 100.87968 107.14176 113.47776 119.73984 126.07584 132.45409 138.69504 145.03104 151.29312 157.62912 163.8912 170.2272 176.48927 182.82529 189.08736 195.42336 201.68544 208.02144 214.28352 220.61952 226.88161 233.21761 239.47968 245.81567 252.19392 258.43488 264.77087 271.03296 277.36896 283.63104 289.96704 296.22913 302.56512">ALIGN=&quot;LEFT&quot;/&gt;}&gt;, shape=&quot;record&quot;, style=&quot;solid&quot;];</tspan></text>
</g></g><g
       id="g440"><g
         clip-path="url(#clipPath446)"
         id="g442" /></g><g
       id="g448"><g
         clip-path="url(#clipPath454)"
         id="g450"><text
           id="text458"
           style="font-variant:normal;font-weight:normal;font-size:10.56000042px;font-family:'Courier 10 Pitch';-inkscape-font-specification:CourierNewPSMT;writing-mode:lr-tb;fill:#000000;fill-opacity:1;fill-rule:nonzero;stroke:none"
           transform="matrix(1,0,0,-1,75.024,413.59)"><tspan
             id="tspan456"
             y="0"
             x="0 6.336 12.71424 18.9552 25.291201 31.55328 37.889278 44.15136 50.487358 56.749439 63.085442 69.347519 75.683517 81.945602 88.281601 94.543678 100.87968 107.14176 113.47776 119.73984 126.07584 132.45409 138.69504 145.03104 151.29312 157.62912 163.8912 170.2272 176.48927 182.82529 189.08736 195.42336 201.68544 208.02144 214.28352 220.61952 226.88161 233.21761 239.47968 245.81567 252.19392 258.43488 264.77087 271.03296 277.36896 283.63104 289.96704 296.22913 302.56512 308.82721 315.16321 321.42529 327.76129 334.02335 340.35938 346.62143 352.95743 359.21951 365.55551 371.93375 378.17471 384.51071 390.7728 397.1088 403.37088 409.70688 415.96896 422.30496 428.56705 434.90305 441.16513 447.50113">&quot;azee_animator.panels.AnimateButton&quot; [color=&quot;black&quot;, fontcolor=&quot;black&quot;, </tspan></text>
</g></g><g
       id="g460"><g
         clip-path="url(#clipPath466)"
         id="g462"><text
           id="text470"
           style="font-variant:normal;font-weight:normal;font-size:10.56000042px;font-family:'Courier 10 Pitch';-inkscape-font-specification:CourierNewPSMT;writing-mode:lr-tb;fill:#000000;fill-opacity:1;fill-rule:nonzero;stroke:none"
           transform="matrix(1,0,0,-1,75.024,401.71)"><tspan
             id="tspan468"
             y="0"
             x="0 6.336 12.71424 18.9552 25.291201 31.55328 37.889278 44.15136 50.487358 56.749439 63.085442 69.347519 75.683517 81.945602 88.281601 94.543678 100.87968 107.14176 113.47776 119.73984 126.07584 132.45409 138.69504 145.03104 151.29312 157.62912 163.8912 170.2272 176.48927 182.82529 189.08736 195.42336 201.68544 208.02144 214.28352 220.61952 226.88161 233.21761 239.47968 245.81567 252.19392 258.43488 264.77087 271.03296 277.36896 283.63104 289.96704 296.22913 302.56512 308.82721 315.16321 321.42529 327.76129 334.02335 340.35938 346.62143 352.95743 359.21951 365.55551 371.93375 378.17471 384.51071 390.7728 397.1088 403.37088 409.70688 415.96896 422.30496">label=&lt;{AnimateButton|bl_context : str&lt;br ALIGN=&quot;LEFT&quot;/&gt;bl_idname : </tspan></text>
</g></g><g
       id="g472"><g
         clip-path="url(#clipPath478)"
         id="g474"><text
           id="text482"
           style="font-variant:normal;font-weight:normal;font-size:10.56000042px;font-family:'Courier 10 Pitch';-inkscape-font-specification:CourierNewPSMT;writing-mode:lr-tb;fill:#000000;fill-opacity:1;fill-rule:nonzero;stroke:none"
           transform="matrix(1,0,0,-1,75.024,389.83)"><tspan
             id="tspan480"
             y="0"
             x="0 6.336 12.71424 18.9552 25.291201 31.55328 37.889278 44.15136 50.487358 56.749439 63.085442 69.347519 75.683517">str&lt;br ALIGN=</tspan></text>
</g></g><g
       id="g484"><g
         clip-path="url(#clipPath490)"
         id="g486"><text
           id="text494"
           style="font-variant:normal;font-weight:normal;font-size:10.56000042px;font-family:'Courier 10 Pitch';-inkscape-font-specification:CourierNewPSMT;writing-mode:lr-tb;fill:#000000;fill-opacity:1;fill-rule:nonzero;stroke:none"
           transform="matrix(1,0,0,-1,156.98,389.83)"><tspan
             id="tspan492"
             y="0"
             x="0 6.336 12.59808 18.93408 25.196159 31.53216 37.794239 44.130241 50.50848 56.749439 63.085442 69.347519 75.683517 81.945602 88.281601 94.543678 100.87968 107.14176 113.47776 119.73984 126.07584 132.33792 138.67392 144.936 151.272 157.53407 163.87009 170.24832 176.48927 182.82529 189.08736 195.42336 201.68544 208.02144 214.28352 220.61952 226.88161 233.21761 239.47968 245.81567 252.07776 258.41376 264.67584 271.01184 277.27393 283.60992 289.98816 296.22913 302.56512 308.82721 315.16321 321.42529 327.76129 334.02335 340.35938 346.62143 352.95743 359.21951 365.55551 371.8176">&quot;LEFT&quot;/&gt;bl_label : str&lt;br ALIGN=&quot;LEFT&quot;/&gt;bl_options : set&lt;br </tspan></text>
</g></g><g
       id="g496"><g
         clip-path="url(#clipPath502)"
         id="g498"><text
           id="text506"
           style="font-variant:normal;font-weight:normal;font-size:10.56000042px;font-family:'Courier 10 Pitch';-inkscape-font-specification:CourierNewPSMT;writing-mode:lr-tb;fill:#000000;fill-opacity:1;fill-rule:nonzero;stroke:none"
           transform="matrix(1,0,0,-1,75.024,377.93)"><tspan
             id="tspan504"
             y="0"
             x="0 6.336 12.71424 18.9552 25.291201 31.55328 37.889278 44.15136 50.487358 56.749439 63.085442 69.347519 75.683517 81.945602 88.281601 94.543678 100.87968 107.14176 113.47776 119.73984 126.07584 132.45409 138.69504 145.03104 151.29312 157.62912 163.8912 170.2272 176.48927 182.82529 189.08736 195.42336 201.68544 208.02144 214.28352 220.61952 226.88161 233.21761 239.47968 245.81567 252.19392 258.43488 264.77087 271.03296 277.36896 283.63104 289.96704 296.22913 302.56512 308.82721 315.16321 321.42529 327.76129 334.02335 340.35938 346.62143 352.95743 359.21951 365.55551 371.93375 378.17471 384.51071 390.7728 397.1088 403.37088 409.70688 415.96896 422.30496 428.56705">ALIGN=&quot;LEFT&quot;/&gt;|execute(context)&lt;br ALIGN=&quot;LEFT&quot;/&gt;}&gt;, shape=&quot;record&quot;, </tspan></text>
</g></g><g
       id="g508"><g
         clip-path="url(#clipPath514)"
         id="g510"><text
           id="text518"
           style="font-variant:normal;font-weight:normal;font-size:10.56000042px;font-family:'Courier 10 Pitch';-inkscape-font-specification:CourierNewPSMT;writing-mode:lr-tb;fill:#000000;fill-opacity:1;fill-rule:nonzero;stroke:none"
           transform="matrix(1,0,0,-1,75.024,365.93)"><tspan
             id="tspan516"
             y="0"
             x="0 6.336 12.71424 18.9552 25.291201 31.55328 37.889278 44.15136 50.487358 56.749439 63.085442 69.347519 75.683517 81.945602 88.281601">style=&quot;solid&quot;];</tspan></text>
</g></g><g
       id="g520"><g
         clip-path="url(#clipPath526)"
         id="g522" /></g><g
       id="g528"><g
         clip-path="url(#clipPath534)"
         id="g530"><text
           id="text538"
           style="font-variant:normal;font-weight:normal;font-size:10.56000042px;font-family:'Courier 10 Pitch';-inkscape-font-specification:CourierNewPSMT;writing-mode:lr-tb;fill:#000000;fill-opacity:1;fill-rule:nonzero;stroke:none"
           transform="matrix(1,0,0,-1,75.024,354.05)"><tspan
             id="tspan536"
             y="0"
             x="0 6.336 12.71424 18.9552 25.291201 31.55328 37.889278 44.15136 50.487358 56.749439 63.085442 69.347519 75.683517 81.945602 88.281601 94.543678 100.87968 107.14176 113.47776 119.73984 126.07584 132.45409 138.69504 145.03104 151.29312 157.62912 163.8912 170.2272 176.48927 182.82529 189.08736 195.42336 201.68544 208.02144 214.28352 220.61952 226.88161 233.21761 239.47968 245.81567 252.19392 258.43488 264.77087 271.03296 277.36896 283.63104 289.96704 296.22913 302.56512 308.82721 315.16321 321.42529 327.76129 334.02335 340.35938 346.62143 352.95743 359.21951 365.55551 371.93375 378.17471 384.51071 390.7728 397.1088 403.37088 409.70688 415.96896 422.30496 428.56705 434.90305 441.16513 447.50113 453.76321 460.09921">&quot;azee_animator.panels.AnimateHeadless&quot; [color=&quot;black&quot;, fontcolor=&quot;black&quot;, </tspan></text>
</g></g><g
       id="g540"><g
         clip-path="url(#clipPath546)"
         id="g542"><text
           id="text550"
           style="font-variant:normal;font-weight:normal;font-size:10.56000042px;font-family:'Courier 10 Pitch';-inkscape-font-specification:CourierNewPSMT;writing-mode:lr-tb;fill:#000000;fill-opacity:1;fill-rule:nonzero;stroke:none"
           transform="matrix(1,0,0,-1,75.024,342.17)"><tspan
             id="tspan548"
             y="0"
             x="0 6.336 12.71424 18.9552 25.291201 31.55328 37.889278 44.15136 50.487358 56.749439 63.085442 69.347519 75.683517 81.945602 88.281601 94.543678 100.87968 107.14176 113.47776 119.73984 126.07584 132.45409 138.69504 145.03104 151.29312 157.62912 163.8912 170.2272 176.48927 182.82529 189.08736 195.42336 201.68544 208.02144 214.28352 220.61952">label=&lt;{AnimateHeadless|bl_context :</tspan></text>
</g></g><g
       id="g552"><g
         clip-path="url(#clipPath558)"
         id="g554" /></g><g
       id="g560"><g
         clip-path="url(#clipPath566)"
         id="g562"><text
           id="text570"
           style="font-variant:normal;font-weight:normal;font-size:10.56000042px;font-family:'Courier 10 Pitch';-inkscape-font-specification:CourierNewPSMT;writing-mode:lr-tb;fill:#000000;fill-opacity:1;fill-rule:nonzero;stroke:none"
           transform="matrix(1,0,0,-1,308.33,342.17)"><tspan
             id="tspan568"
             y="0"
             x="0 6.2409601 12.57696 18.9552 25.196159 31.53216 37.794239 44.130241 50.392319 56.728321 62.990398 69.326401 75.588478 81.924477 88.186562 94.52256 100.78464 107.12064 113.38272 119.71872 125.9808 132.3168 138.69504 144.936 151.272 157.53407 163.87009 170.13216 176.46815 182.73024 189.06624 195.32832 201.66432">str&lt;br ALIGN=&quot;LEFT&quot;/&gt;bl_idname : </tspan></text>
</g></g><g
       id="g572"><g
         clip-path="url(#clipPath578)"
         id="g574"><text
           id="text582"
           style="font-variant:normal;font-weight:normal;font-size:10.56000042px;font-family:'Courier 10 Pitch';-inkscape-font-specification:CourierNewPSMT;writing-mode:lr-tb;fill:#000000;fill-opacity:1;fill-rule:nonzero;stroke:none"
           transform="matrix(1,0,0,-1,75.024,330.29)"><tspan
             id="tspan580"
             y="0"
             x="0 6.336 12.71424 18.9552 25.291201 31.55328 37.889278 44.15136 50.487358 56.749439 63.085442 69.347519 75.683517 81.945602 88.281601 94.543678 100.87968 107.14176 113.47776 119.73984 126.07584 132.45409 138.69504 145.03104 151.29312 157.62912 163.8912 170.2272 176.48927 182.82529 189.08736 195.42336 201.68544 208.02144 214.28352 220.61952 226.88161 233.21761 239.47968 245.81567 252.19392 258.43488 264.77087 271.03296 277.36896 283.63104 289.96704 296.22913 302.56512 308.82721 315.16321 321.42529 327.76129 334.02335 340.35938 346.62143 352.95743 359.21951 365.55551 371.93375 378.17471 384.51071 390.7728 397.1088 403.37088 409.70688 415.96896 422.30496 428.56705 434.90305 441.16513 447.50113 453.76321">str&lt;br ALIGN=&quot;LEFT&quot;/&gt;bl_label : str&lt;br ALIGN=&quot;LEFT&quot;/&gt;bl_options : set&lt;br </tspan></text>
</g></g><g
       id="g584"><g
         clip-path="url(#clipPath590)"
         id="g586"><text
           id="text594"
           style="font-variant:normal;font-weight:normal;font-size:10.56000042px;font-family:'Courier 10 Pitch';-inkscape-font-specification:CourierNewPSMT;writing-mode:lr-tb;fill:#000000;fill-opacity:1;fill-rule:nonzero;stroke:none"
           transform="matrix(1,0,0,-1,75.024,318.41)"><tspan
             id="tspan592"
             y="0"
             x="0 6.336 12.71424 18.9552 25.291201 31.55328 37.889278 44.15136 50.487358 56.749439 63.085442 69.347519 75.683517 81.945602 88.281601 94.543678 100.87968 107.14176 113.47776 119.73984 126.07584 132.45409 138.69504 145.03104 151.29312 157.62912 163.8912 170.2272 176.48927 182.82529 189.08736 195.42336 201.68544 208.02144 214.28352 220.61952 226.88161 233.21761 239.47968 245.81567 252.19392 258.43488 264.77087 271.03296 277.36896 283.63104 289.96704 296.22913 302.56512 308.82721 315.16321 321.42529 327.76129 334.02335 340.35938 346.62143 352.95743">ALIGN=&quot;LEFT&quot;/&gt;text&lt;br ALIGN=&quot;LEFT&quot;/&gt;|execute(context)&lt;br </tspan></text>
</g></g><g
       id="g596"><g
         clip-path="url(#clipPath602)"
         id="g598"><text
           id="text606"
           style="font-variant:normal;font-weight:normal;font-size:10.56000042px;font-family:'Courier 10 Pitch';-inkscape-font-specification:CourierNewPSMT;writing-mode:lr-tb;fill:#000000;fill-opacity:1;fill-rule:nonzero;stroke:none"
           transform="matrix(1,0,0,-1,75.024,306.53)"><tspan
             id="tspan604"
             y="0"
             x="0 6.336 12.71424 18.9552 25.291201 31.55328 37.889278 44.15136 50.487358 56.749439 63.085442 69.347519 75.683517 81.945602 88.281601 94.543678 100.87968 107.14176 113.47776 119.73984 126.07584 132.45409 138.69504 145.03104 151.29312 157.62912 163.8912 170.2272 176.48927 182.82529 189.08736 195.42336 201.68544 208.02144 214.28352 220.61952 226.88161 233.21761 239.47968 245.81567 252.19392 258.43488 264.77087 271.03296 277.36896 283.63104 289.96704 296.22913 302.56512">ALIGN=&quot;LEFT&quot;/&gt;}&gt;, shape=&quot;record&quot;, style=&quot;solid&quot;];</tspan></text>
</g></g><g
       id="g608"><g
         clip-path="url(#clipPath614)"
         id="g610" /></g><g
       id="g616"><g
         clip-path="url(#clipPath622)"
         id="g618"><text
           id="text626"
           style="font-variant:normal;font-weight:normal;font-size:10.56000042px;font-family:'Courier 10 Pitch';-inkscape-font-specification:CourierNewPSMT;writing-mode:lr-tb;fill:#000000;fill-opacity:1;fill-rule:nonzero;stroke:none"
           transform="matrix(1,0,0,-1,75.024,294.65)"><tspan
             id="tspan624"
             y="0"
             x="0 6.336 12.71424 18.9552 25.291201 31.55328 37.889278 44.15136 50.487358 56.749439 63.085442 69.347519 75.683517 81.945602 88.281601 94.543678 100.87968 107.14176 113.47776 119.73984 126.07584 132.45409 138.69504 145.03104 151.29312 157.62912 163.8912 170.2272 176.48927 182.82529 189.08736 195.42336 201.68544 208.02144 214.28352 220.61952 226.88161 233.21761 239.47968 245.81567 252.19392">&quot;azee_animator.nnutils.dataloader.Animati</tspan></text>
</g></g><g
       id="g628"><g
         clip-path="url(#clipPath634)"
         id="g630"><text
           id="text638"
           style="font-variant:normal;font-weight:normal;font-size:10.56000042px;font-family:'Courier 10 Pitch';-inkscape-font-specification:CourierNewPSMT;writing-mode:lr-tb;fill:#000000;fill-opacity:1;fill-rule:nonzero;stroke:none"
           transform="matrix(1,0,0,-1,333.55,294.65)"><tspan
             id="tspan636"
             y="0"
             x="0 6.336 12.59808 18.93408 25.196159 31.53216 37.794239 44.130241 50.392319 56.728321 62.990398 69.326401 75.588478 81.924477 88.186562 94.52256 100.78464 107.12064 113.49888 119.73984 126.07584 132.33792">onDS&quot; [color=&quot;black&quot;, </tspan></text>
</g></g><g
       id="g640"><g
         clip-path="url(#clipPath646)"
         id="g642"><text
           id="text650"
           style="font-variant:normal;font-weight:normal;font-size:10.56000042px;font-family:'Courier 10 Pitch';-inkscape-font-specification:CourierNewPSMT;writing-mode:lr-tb;fill:#000000;fill-opacity:1;fill-rule:nonzero;stroke:none"
           transform="matrix(1,0,0,-1,75.024,282.77)"><tspan
             id="tspan648"
             y="0"
             x="0 6.336 12.71424 18.9552 25.291201 31.55328 37.889278 44.15136 50.487358 56.749439 63.085442 69.347519 75.683517 81.945602 88.281601 94.543678 100.87968 107.14176 113.47776 119.73984 126.07584 132.45409 138.69504 145.03104 151.29312 157.62912 163.8912 170.2272 176.48927 182.82529 189.08736 195.42336 201.68544 208.02144 214.28352 220.61952 226.88161 233.21761 239.47968 245.81567 252.19392 258.43488 264.77087 271.03296 277.36896 283.63104 289.96704 296.22913 302.56512 308.82721 315.16321 321.42529 327.76129 334.02335 340.35938 346.62143 352.95743 359.21951 365.55551 371.93375 378.17471 384.51071 390.7728 397.1088 403.37088 409.70688 415.96896 422.30496 428.56705">fontcolor=&quot;black&quot;, label=&lt;{AnimationDS|ds : RecursiveScriptModule&lt;br </tspan></text>
</g></g><g
       id="g652"><g
         clip-path="url(#clipPath658)"
         id="g654"><text
           id="text662"
           style="font-variant:normal;font-weight:normal;font-size:10.56000042px;font-family:'Courier 10 Pitch';-inkscape-font-specification:CourierNewPSMT;writing-mode:lr-tb;fill:#000000;fill-opacity:1;fill-rule:nonzero;stroke:none"
           transform="matrix(1,0,0,-1,75.024,270.89)"><tspan
             id="tspan660"
             y="0"
             x="0 6.336 12.71424 18.9552 25.291201 31.55328 37.889278 44.15136 50.487358 56.749439 63.085442 69.347519 75.683517 81.945602 88.281601 94.543678 100.87968 107.14176 113.47776 119.73984 126.07584 132.45409 138.69504 145.03104 151.29312 157.62912 163.8912 170.2272 176.48927 182.82529 189.08736 195.42336 201.68544 208.02144 214.28352 220.61952 226.88161 233.21761 239.47968 245.81567 252.19392 258.43488 264.77087 271.03296 277.36896 283.63104 289.96704 296.22913 302.56512 308.82721 315.16321 321.42529 327.76129 334.02335 340.35938 346.62143 352.95743 359.21951 365.55551 371.93375 378.17471 384.51071 390.7728 397.1088 403.37088 409.70688 415.96896 422.30496">ALIGN=&quot;LEFT&quot;/&gt;|fetch_data(idx)&lt;br ALIGN=&quot;LEFT&quot;/&gt;}&gt;, shape=&quot;record&quot;, </tspan></text>
</g></g><g
       id="g664"><g
         clip-path="url(#clipPath670)"
         id="g666"><text
           id="text674"
           style="font-variant:normal;font-weight:normal;font-size:10.56000042px;font-family:'Courier 10 Pitch';-inkscape-font-specification:CourierNewPSMT;writing-mode:lr-tb;fill:#000000;fill-opacity:1;fill-rule:nonzero;stroke:none"
           transform="matrix(1,0,0,-1,75.024,258.89)"><tspan
             id="tspan672"
             y="0"
             x="0 6.336 12.71424 18.9552 25.291201 31.55328 37.889278 44.15136 50.487358 56.749439 63.085442 69.347519 75.683517 81.945602 88.281601">style=&quot;solid&quot;];</tspan></text>
</g></g><g
       id="g676"><g
         clip-path="url(#clipPath682)"
         id="g678" /></g><g
       id="g684"><g
         clip-path="url(#clipPath690)"
         id="g686"><text
           id="text694"
           style="font-variant:normal;font-weight:normal;font-size:10.56000042px;font-family:'Courier 10 Pitch';-inkscape-font-specification:CourierNewPSMT;writing-mode:lr-tb;fill:#000000;fill-opacity:1;fill-rule:nonzero;stroke:none"
           transform="matrix(1,0,0,-1,75.024,247.01)"><tspan
             id="tspan692"
             y="0"
             x="0 6.336 12.71424 18.9552 25.291201 31.55328 37.889278 44.15136 50.487358 56.749439 63.085442 69.347519 75.683517 81.945602 88.281601 94.543678 100.87968 107.14176 113.47776 119.73984 126.07584 132.45409 138.69504 145.03104 151.29312 157.62912 163.8912 170.2272 176.48927 182.82529 189.08736 195.42336 201.68544 208.02144 214.28352 220.61952 226.88161 233.21761 239.47968 245.81567 252.19392 258.43488 264.77087 271.03296 277.36896 283.63104 289.96704 296.22913 302.56512 308.82721 315.16321 321.42529 327.76129 334.02335 340.35938 346.62143 352.95743 359.21951 365.55551 371.93375 378.17471 384.51071 390.7728 397.1088 403.37088 409.70688 415.96896 422.30496 428.56705">&quot;azee_animator.animator.Animator&quot; [color=&quot;black&quot;, fontcolor=&quot;black&quot;, </tspan></text>
</g></g><g
       id="g696"><g
         clip-path="url(#clipPath702)"
         id="g698"><text
           id="text706"
           style="font-variant:normal;font-weight:normal;font-size:10.56000042px;font-family:'Courier 10 Pitch';-inkscape-font-specification:CourierNewPSMT;writing-mode:lr-tb;fill:#000000;fill-opacity:1;fill-rule:nonzero;stroke:none"
           transform="matrix(1,0,0,-1,75.024,235.13)"><tspan
             id="tspan704"
             y="0"
             x="0 6.336 12.71424 18.9552 25.291201 31.55328 37.889278 44.15136 50.487358 56.749439 63.085442">label=&lt;{Ani</tspan></text>
</g></g><g
       id="g708"><g
         clip-path="url(#clipPath714)"
         id="g710"><text
           id="text718"
           style="font-variant:normal;font-weight:normal;font-size:10.56000042px;font-family:'Courier 10 Pitch';-inkscape-font-specification:CourierNewPSMT;writing-mode:lr-tb;fill:#000000;fill-opacity:1;fill-rule:nonzero;stroke:none"
           transform="matrix(1,0,0,-1,144.38,235.13)"><tspan
             id="tspan716"
             y="0"
             x="0 6.336 12.59808 18.93408 25.196159 31.53216 37.794239 44.130241 50.392319 56.728321 63.10656 69.347519 75.683517 81.945602 88.281601 94.543678 100.87968 107.14176 113.47776 119.73984 126.07584 132.33792 138.67392 144.936 151.272 157.53407 163.87009 170.13216 176.46815 182.84641 189.08736 195.42336 201.68544 208.02144 214.28352">mator|current_block_index : int&lt;br </tspan></text>
</g></g><g
       id="g720"><g
         clip-path="url(#clipPath726)"
         id="g722"><text
           id="text730"
           style="font-variant:normal;font-weight:normal;font-size:10.56000042px;font-family:'Courier 10 Pitch';-inkscape-font-specification:CourierNewPSMT;writing-mode:lr-tb;fill:#000000;fill-opacity:1;fill-rule:nonzero;stroke:none"
           transform="matrix(1,0,0,-1,75.024,223.25)"><tspan
             id="tspan728"
             y="0"
             x="0 6.336 12.71424 18.9552 25.291201 31.55328 37.889278 44.15136 50.487358 56.749439 63.085442 69.347519 75.683517 81.945602 88.281601 94.543678 100.87968 107.14176 113.47776 119.73984 126.07584 132.45409 138.69504 145.03104 151.29312 157.62912 163.8912 170.2272 176.48927 182.82529 189.08736 195.42336 201.68544 208.02144 214.28352 220.61952 226.88161 233.21761 239.47968 245.81567">ALIGN=&quot;LEFT&quot;/&gt;current_pc_index : int&lt;br </tspan></text>
</g></g><g
       id="g732"><g
         clip-path="url(#clipPath738)"
         id="g734"><text
           id="text742"
           style="font-variant:normal;font-weight:normal;font-size:10.56000042px;font-family:'Courier 10 Pitch';-inkscape-font-specification:CourierNewPSMT;writing-mode:lr-tb;fill:#000000;fill-opacity:1;fill-rule:nonzero;stroke:none"
           transform="matrix(1,0,0,-1,75.024,211.37)"><tspan
             id="tspan740"
             y="0"
             x="0 6.336 12.71424 18.9552 25.291201 31.55328 37.889278 44.15136 50.487358 56.749439 63.085442 69.347519 75.683517 81.945602 88.281601 94.543678 100.87968 107.14176 113.47776 119.73984 126.07584 132.45409 138.69504 145.03104 151.29312 157.62912 163.8912 170.2272 176.48927 182.82529 189.08736 195.42336 201.68544 208.02144 214.28352 220.61952 226.88161 233.21761 239.47968 245.81567 252.19392 258.43488 264.77087 271.03296 277.36896 283.63104 289.96704">ALIGN=&quot;LEFT&quot;/&gt;object_posture_binding : dict&lt;br </tspan></text>
</g></g><g
       id="g744"><g
         clip-path="url(#clipPath750)"
         id="g746"><text
           id="text754"
           style="font-variant:normal;font-weight:normal;font-size:10.56000042px;font-family:'Courier 10 Pitch';-inkscape-font-specification:CourierNewPSMT;writing-mode:lr-tb;fill:#000000;fill-opacity:1;fill-rule:nonzero;stroke:none"
           transform="matrix(1,0,0,-1,75.024,199.46)"><tspan
             id="tspan752"
             y="0"
             x="0 6.336 12.71424 18.9552 25.291201 31.55328 37.889278 44.15136 50.487358 56.749439 63.085442 69.347519 75.683517 81.945602 88.281601 94.543678 100.87968 107.14176 113.47776 119.73984 126.07584 132.45409 138.69504 145.03104 151.29312 157.62912 163.8912 170.2272 176.48927 182.82529 189.08736 195.42336 201.68544 208.02144 214.28352 220.61952 226.88161 233.21761 239.47968 245.81567 252.19392 258.43488 264.77087 271.03296 277.36896 283.63104 289.96704 296.22913 302.56512">ALIGN=&quot;LEFT&quot;/&gt;posture_animated_binding : dict&lt;br </tspan></text>
</g></g><g
       id="g756"><g
         clip-path="url(#clipPath762)"
         id="g758"><text
           id="text766"
           style="font-variant:normal;font-weight:normal;font-size:10.56000042px;font-family:'Courier 10 Pitch';-inkscape-font-specification:CourierNewPSMT;writing-mode:lr-tb;fill:#000000;fill-opacity:1;fill-rule:nonzero;stroke:none"
           transform="matrix(1,0,0,-1,75.024,187.58)"><tspan
             id="tspan764"
             y="0"
             x="0 6.336 12.71424 18.9552 25.291201 31.55328 37.889278 44.15136 50.487358 56.749439 63.085442 69.347519 75.683517 81.945602 88.281601 94.543678 100.87968 107.14176 113.47776 119.73984 126.07584 132.45409 138.69504 145.03104 151.29312 157.62912 163.8912 170.2272 176.48927 182.82529 189.08736 195.42336 201.68544 208.02144 214.28352 220.61952 226.88161 233.21761 239.47968 245.81567 252.19392 258.43488 264.77087 271.03296 277.36896 283.63104 289.96704 296.22913 302.56512">ALIGN=&quot;LEFT&quot;/&gt;posture_timeline_binding : dict&lt;br </tspan></text>
</g></g><g
       id="g768"><g
         clip-path="url(#clipPath774)"
         id="g770"><text
           id="text778"
           style="font-variant:normal;font-weight:normal;font-size:10.56000042px;font-family:'Courier 10 Pitch';-inkscape-font-specification:CourierNewPSMT;writing-mode:lr-tb;fill:#000000;fill-opacity:1;fill-rule:nonzero;stroke:none"
           transform="matrix(1,0,0,-1,75.024,175.7)"><tspan
             id="tspan776"
             y="0"
             x="0 6.336 12.71424 18.9552 25.291201 31.55328 37.889278 44.15136 50.487358 56.749439 63.085442 69.347519 75.683517 81.945602 88.281601 94.543678 100.87968 107.14176 113.47776 119.73984 126.07584 132.45409 138.69504 145.03104 151.29312 157.62912 163.8912 170.2272 176.48927 182.82529 189.08736 195.42336 201.68544 208.02144 214.28352 220.61952">ALIGN=&quot;LEFT&quot;/&gt;|animate(selected_post</tspan></text>
</g></g><g
       id="g780"><g
         clip-path="url(#clipPath786)"
         id="g782"><text
           id="text790"
           style="font-variant:normal;font-weight:normal;font-size:10.56000042px;font-family:'Courier 10 Pitch';-inkscape-font-specification:CourierNewPSMT;writing-mode:lr-tb;fill:#000000;fill-opacity:1;fill-rule:nonzero;stroke:none"
           transform="matrix(1,0,0,-1,301.97,175.7)"><tspan
             id="tspan788"
             y="0"
             x="0 6.336 12.59808 18.93408 25.312321 31.55328 37.889278 44.15136 50.487358 56.749439 63.085442 69.347519 75.683517 81.945602 88.281601 94.543678 100.87968 107.14176 113.47776 119.73984 126.07584 132.33792 138.67392 145.05215 151.29312 157.62912 163.8912 170.2272">ure, timeline, headless)&lt;br </tspan></text>
</g></g><g
       id="g792"><g
         clip-path="url(#clipPath798)"
         id="g794"><text
           id="text802"
           style="font-variant:normal;font-weight:normal;font-size:10.56000042px;font-family:'Courier 10 Pitch';-inkscape-font-specification:CourierNewPSMT;writing-mode:lr-tb;fill:#000000;fill-opacity:1;fill-rule:nonzero;stroke:none"
           transform="matrix(1,0,0,-1,75.024,163.7)"><tspan
             id="tspan800"
             y="0"
             x="0 6.336 12.71424 18.9552 25.291201 31.55328 37.889278 44.15136 50.487358 56.749439 63.085442 69.347519 75.683517 81.945602 88.281601 94.543678 100.87968 107.14176 113.47776 119.73984 126.07584 132.45409 138.69504 145.03104 151.29312 157.62912 163.8912 170.2272 176.48927 182.82529 189.08736 195.42336 201.68544 208.02144 214.28352 220.61952 226.88161 233.21761 239.47968 245.81567 252.19392 258.43488 264.77087 271.03296 277.36896 283.63104 289.96704 296.22913 302.56512 308.82721 315.16321 321.42529 327.76129 334.02335 340.35938 346.62143 352.95743 359.21951 365.55551 371.93375 378.17471 384.51071 390.7728 397.1088 403.37088 409.70688">ALIGN=&quot;LEFT&quot;/&gt;animate_headless(armature_object, init_file_DB_dir, </tspan></text>
</g></g><g
       id="g804"><g
         clip-path="url(#clipPath810)"
         id="g806"><text
           id="text814"
           style="font-variant:normal;font-weight:normal;font-size:10.56000042px;font-family:'Courier 10 Pitch';-inkscape-font-specification:CourierNewPSMT;writing-mode:lr-tb;fill:#000000;fill-opacity:1;fill-rule:nonzero;stroke:none"
           transform="matrix(1,0,0,-1,75.024,151.82)"><tspan
             id="tspan812"
             y="0"
             x="0 6.336 12.71424 18.9552 25.291201 31.55328 37.889278 44.15136 50.487358 56.749439 63.085442 69.347519 75.683517 81.945602 88.281601 94.543678 100.87968 107.14176 113.47776 119.73984 126.07584 132.45409 138.69504 145.03104 151.29312 157.62912 163.8912 170.2272 176.48927 182.82529 189.08736 195.42336 201.68544 208.02144 214.28352 220.61952 226.88161 233.21761 239.47968 245.81567 252.19392 258.43488 264.77087 271.03296 277.36896 283.63104 289.96704 296.22913 302.56512">text)&lt;br ALIGN=&quot;LEFT&quot;/&gt;create_blocks(context)&lt;br </tspan></text>
</g></g><g
       id="g816"><g
         clip-path="url(#clipPath822)"
         id="g818"><text
           id="text826"
           style="font-variant:normal;font-weight:normal;font-size:10.56000042px;font-family:'Courier 10 Pitch';-inkscape-font-specification:CourierNewPSMT;writing-mode:lr-tb;fill:#000000;fill-opacity:1;fill-rule:nonzero;stroke:none"
           transform="matrix(1,0,0,-1,75.024,139.94)"><tspan
             id="tspan824"
             y="0"
             x="0 6.336 12.71424 18.9552 25.291201 31.55328 37.889278 44.15136 50.487358 56.749439 63.085442 69.347519 75.683517 81.945602 88.281601 94.543678 100.87968 107.14176 113.47776 119.73984 126.07584 132.45409 138.69504 145.03104 151.29312 157.62912 163.8912 170.2272 176.48927 182.82529 189.08736 195.42336 201.68544 208.02144 214.28352 220.61952 226.88161 233.21761 239.47968 245.81567 252.19392">ALIGN=&quot;LEFT&quot;/&gt;create_posture(context)&lt;br </tspan></text>
</g></g><g
       id="g828"><g
         clip-path="url(#clipPath834)"
         id="g830"><text
           id="text838"
           style="font-variant:normal;font-weight:normal;font-size:10.56000042px;font-family:'Courier 10 Pitch';-inkscape-font-specification:CourierNewPSMT;writing-mode:lr-tb;fill:#000000;fill-opacity:1;fill-rule:nonzero;stroke:none"
           transform="matrix(1,0,0,-1,75.024,128.06)"><tspan
             id="tspan836"
             y="0"
             x="0 6.336 12.71424 18.9552 25.291201 31.55328 37.889278 44.15136 50.487358 56.749439 63.085442 69.347519 75.683517 81.945602 88.281601 94.543678 100.87968 107.14176 113.47776 119.73984 126.07584 132.45409 138.69504 145.03104 151.29312 157.62912 163.8912 170.2272 176.48927 182.82529 189.08736 195.42336 201.68544 208.02144 214.28352 220.61952 226.88161 233.21761 239.47968 245.81567 252.19392 258.43488 264.77087 271.03296 277.36896 283.63104 289.96704 296.22913 302.56512 308.82721">ALIGN=&quot;LEFT&quot;/&gt;generate_score(context, posture)&lt;br </tspan></text>
</g></g><g
       id="g840"><g
         clip-path="url(#clipPath846)"
         id="g842"><text
           id="text850"
           style="font-variant:normal;font-weight:normal;font-size:10.56000042px;font-family:'Courier 10 Pitch';-inkscape-font-specification:CourierNewPSMT;writing-mode:lr-tb;fill:#000000;fill-opacity:1;fill-rule:nonzero;stroke:none"
           transform="matrix(1,0,0,-1,75.024,116.18)"><tspan
             id="tspan848"
             y="0"
             x="0 6.336 12.71424 18.9552 25.291201 31.55328 37.889278 44.15136 50.487358 56.749439 63.085442 69.347519 75.683517 81.945602 88.281601 94.543678 100.87968 107.14176 113.47776 119.73984 126.07584 132.45409">ALIGN=&quot;LEFT&quot;/&gt;generate</tspan></text>
</g></g><g
       id="g852"><g
         clip-path="url(#clipPath858)"
         id="g854"><text
           id="text862"
           style="font-variant:normal;font-weight:normal;font-size:10.56000042px;font-family:'Courier 10 Pitch';-inkscape-font-specification:CourierNewPSMT;writing-mode:lr-tb;fill:#000000;fill-opacity:1;fill-rule:nonzero;stroke:none"
           transform="matrix(1,0,0,-1,213.77,116.18)"><tspan
             id="tspan860"
             y="0"
             x="0 6.336 12.59808 18.93408 25.196159 31.53216 37.794239 44.130241 50.392319 56.728321 62.990398 69.326401 75.588478 81.924477 88.186562 94.52256 100.78464 107.12064 113.49888 119.73984 126.07584 132.33792 138.67392 144.936 151.272 157.53407 163.87009 170.13216 176.46815 182.73024 189.06624 195.32832 201.66432 207.92641 214.26241 220.52448 226.86047 233.23872 239.47968 245.81567 252.07776">_score_from_text(text, init_file_DB_dir, </tspan></text>
</g></g><g
       id="g864"><g
         clip-path="url(#clipPath870)"
         id="g866"><text
           id="text874"
           style="font-variant:normal;font-weight:normal;font-size:10.56000042px;font-family:'Courier 10 Pitch';-inkscape-font-specification:CourierNewPSMT;writing-mode:lr-tb;fill:#000000;fill-opacity:1;fill-rule:nonzero;stroke:none"
           transform="matrix(1,0,0,-1,75.024,104.3)"><tspan
             id="tspan872"
             y="0"
             x="0 6.336 12.71424 18.9552 25.291201 31.55328 37.889278 44.15136 50.487358 56.749439 63.085442 69.347519 75.683517 81.945602 88.281601 94.543678 100.87968 107.14176 113.47776 119.73984 126.07584 132.45409 138.69504 145.03104 151.29312 157.62912 163.8912 170.2272 176.48927 182.82529 189.08736 195.42336 201.68544 208.02144 214.28352 220.61952 226.88161 233.21761 239.47968 245.81567 252.19392 258.43488 264.77087 271.03296 277.36896 283.63104 289.96704 296.22913 302.56512 308.82721 315.16321 321.42529 327.76129 334.02335 340.35938 346.62143 352.95743 359.21951 365.55551">posture)&lt;br ALIGN=&quot;LEFT&quot;/&gt;get_selected_posture(context)&lt;br </tspan></text>
</g></g><g
       id="g876"><g
         clip-path="url(#clipPath882)"
         id="g878"><text
           id="text886"
           style="font-variant:normal;font-weight:normal;font-size:10.56000042px;font-family:'Courier 10 Pitch';-inkscape-font-specification:CourierNewPSMT;writing-mode:lr-tb;fill:#000000;fill-opacity:1;fill-rule:nonzero;stroke:none"
           transform="matrix(1,0,0,-1,75.024,92.424)"><tspan
             id="tspan884"
             y="0"
             x="0 6.336 12.71424 18.9552 25.291201 31.55328 37.889278 44.15136 50.487358 56.749439 63.085442 69.347519 75.683517 81.945602 88.281601 94.543678 100.87968 107.14176 113.47776 119.73984 126.07584 132.45409 138.69504 145.03104 151.29312 157.62912 163.8912 170.2272 176.48927 182.82529 189.08736 195.42336 201.68544 208.02144 214.28352 220.61952 226.88161 233.21761 239.47968 245.81567 252.19392 258.43488 264.77087 271.03296 277.36896 283.63104 289.96704 296.22913 302.56512 308.82721 315.16321 321.42529 327.76129 334.02335 340.35938 346.62143 352.95743 359.21951 365.55551 371.93375 378.17471 384.51071 390.7728 397.1088 403.37088 409.70688">ALIGN=&quot;LEFT&quot;/&gt;reset(context)&lt;br ALIGN=&quot;LEFT&quot;/&gt;}&gt;, shape=&quot;record&quot;, </tspan></text>
</g></g><g
       id="g888"><g
         clip-path="url(#clipPath894)"
         id="g890"><text
           id="text898"
           style="font-variant:normal;font-weight:normal;font-size:10.56000042px;font-family:'Courier 10 Pitch';-inkscape-font-specification:CourierNewPSMT;writing-mode:lr-tb;fill:#000000;fill-opacity:1;fill-rule:nonzero;stroke:none"
           transform="matrix(1,0,0,-1,75.024,80.544)"><tspan
             id="tspan896"
             y="0"
             x="0 6.336 12.71424 18.9552 25.291201 31.55328 37.889278 44.15136 50.487358 56.749439 63.085442 69.347519 75.683517 81.945602 88.281601">style=&quot;solid&quot;];</tspan></text>
</g></g><g
       id="g900"><g
         clip-path="url(#clipPath906)"
         id="g902" /></g></g></svg>